<svg width="170" height="105" viewBox="0 0 170 105" fill="none" xmlns="http://www.w3.org/2000/svg">
<path d="M105.504 1.96258C106.847 2.82196 107.301 4.02508 106.863 5.57196C106.582 6.32196 106.215 7.02508 105.761 7.68133C105.011 8.74383 104.121 9.68915 103.09 10.5173C98.2771 14.611 92.7459 17.1345 86.4959 18.0876C85.1209 18.3063 83.7459 18.5485 82.3709 18.8141C81.7459 18.9548 81.1599 18.9235 80.6131 18.7204C80.2693 18.5798 80.0974 18.3532 80.0974 18.0407C80.1287 17.9001 80.1756 17.7673 80.2381 17.6423C80.3162 17.5016 80.4021 17.4157 80.4959 17.3845C80.949 17.1345 81.4177 16.9626 81.9021 16.8688C82.5115 16.7595 83.1287 16.6501 83.7537 16.5407C84.2068 16.5095 84.6677 16.447 85.1365 16.3532C88.2302 15.7907 91.0662 14.7595 93.6443 13.2595C96.2224 11.7438 98.6131 9.86883 100.816 7.63446C101.472 7.00946 101.972 6.26727 102.316 5.40789C102.691 4.37664 102.402 3.64227 101.449 3.20477C100.199 2.75164 98.9256 2.50946 97.6287 2.47821C96.0037 2.47821 94.4021 2.47821 92.824 2.47821C92.1365 2.47821 91.449 2.47821 90.7615 2.47821C86.6677 2.47821 82.5896 2.69696 78.5271 3.13446C74.4802 3.55633 70.4334 4.05633 66.3865 4.63446C59.949 5.46258 53.5349 6.46258 47.1443 7.63446C47.1756 8.49383 47.1912 9.35321 47.1912 10.2126C47.1912 21.1032 47.1912 31.9782 47.1912 42.8376C47.1912 46.4157 47.1912 49.9938 47.1912 53.572C47.1912 57.072 47.1912 60.5641 47.1912 64.0485C47.1912 74.111 47.1912 84.1813 47.1912 94.2595C47.1912 96.9313 47.1443 99.611 47.0506 102.299C47.0506 103.736 46.3631 104.338 44.9881 104.103C44.3006 103.994 43.9021 103.619 43.7927 102.978C43.7927 102.697 43.7771 102.416 43.7459 102.134C43.6365 100.838 43.5818 99.5173 43.5818 98.1735C43.5506 89.5173 43.5349 80.8376 43.5349 72.1345C43.5349 50.8532 43.5349 29.572 43.5349 8.29071C43.4724 8.33758 43.4021 8.36102 43.324 8.36102C43.1209 8.39227 42.9334 8.42352 42.7615 8.45477C37.6677 9.45477 32.6287 10.6423 27.6443 12.0173C22.6599 13.3923 17.7459 15.0095 12.9021 16.8688C11.1834 17.5095 9.48024 18.2282 7.79274 19.0251C7.27711 19.2595 6.78493 19.486 6.31618 19.7048C5.37868 20.0485 4.63649 20.6657 4.08961 21.5563C3.71461 22.1032 3.1443 22.3845 2.37868 22.4001C1.62868 22.4157 0.964614 22.2048 0.386489 21.7673C-0.066636 21.3454 -0.121324 20.8923 0.222426 20.4079C0.597426 19.8923 1.05055 19.4548 1.5818 19.0954C2.11305 18.736 2.67555 18.4001 3.2693 18.0876C6.22243 16.5876 9.23024 15.2829 12.2927 14.1735C20.0896 11.3298 28.0271 9.02508 36.1052 7.25946C38.5896 6.74383 41.0662 6.25164 43.5349 5.78289C43.5662 5.26727 43.5974 4.76727 43.6287 4.28289C43.7381 3.62664 44.0584 3.17352 44.5896 2.92352C45.1209 2.65789 45.7146 2.68133 46.3709 2.99383C46.8552 3.25946 47.0818 3.67352 47.0506 4.23602C47.0506 4.53289 47.0662 4.83758 47.0974 5.15008C53.0349 4.11883 58.9959 3.18914 64.9802 2.36102C71.199 1.47039 77.4412 0.782895 83.7068 0.29852C88.5818 -0.0452303 93.4646 -0.0921053 98.3552 0.157895C99.9334 0.251645 101.496 0.493832 103.043 0.884457C103.933 1.08758 104.754 1.44696 105.504 1.96258Z" fill="black"/>
<path d="M83.4021 67.236C82.9802 68.5485 82.1287 70.0563 80.8474 71.7595C79.5818 73.447 77.9959 74.5329 76.0896 75.0173C74.1834 75.5016 72.5349 75.4391 71.1443 74.8298C69.7537 74.2048 68.9881 72.5485 68.8474 69.861C67.2693 72.9235 65.7615 74.8845 64.324 75.7438C62.9021 76.6032 61.4177 76.9313 59.8709 76.7282C58.1209 76.447 56.9412 75.7673 56.3318 74.6891C55.7068 73.611 55.4959 72.3688 55.699 70.9626C55.9021 69.5407 56.3318 68.1813 56.9881 66.8845C57.5037 65.9157 58.2146 65.0173 59.1209 64.1891C60.0427 63.361 61.0037 62.7126 62.0037 62.2438C63.2381 61.6188 64.4802 61.322 65.7302 61.3532C66.9802 61.3845 68.3162 61.7985 69.7381 62.5954C69.7693 62.6266 69.7849 62.5954 69.7849 62.5016C69.7849 62.361 69.8162 62.1891 69.8787 61.986C69.9568 61.7673 70.0818 61.5954 70.2537 61.4704C70.7224 61.1266 71.2771 60.9548 71.9177 60.9548C72.5584 60.9548 73.0506 61.2751 73.3943 61.9157C73.4568 62.7438 73.3709 63.7985 73.1365 65.0798C72.6209 67.8923 72.6209 69.9157 73.1365 71.1501C73.6521 72.3845 74.5584 72.9626 75.8552 72.8845C77.1677 72.7907 78.8631 71.5016 80.9412 69.0173C83.0193 66.5173 83.8396 65.9235 83.4021 67.236ZM60.3396 73.8454C61.0584 74.361 61.8787 74.2907 62.8006 73.6345C63.7381 72.9782 64.6365 72.0485 65.4959 70.8454C66.3552 69.6423 67.074 68.4391 67.6521 67.236C68.2459 66.0329 68.574 65.1423 68.6365 64.5641C66.8865 63.6266 65.3865 63.4704 64.1365 64.0954C62.8865 64.7048 61.8865 65.7126 61.1365 67.1188C60.4021 68.5095 59.9646 69.8688 59.824 71.197C59.6834 72.5095 59.8552 73.3923 60.3396 73.8454Z" fill="black"/>
<path d="M139.136 6.43914C140.027 6.68914 140.285 7.20477 139.91 7.98602C133.988 17.8923 128.769 28.1501 124.254 38.7595C119.738 49.3532 115.605 60.1345 111.855 71.1032C109.418 78.2907 107.144 85.5251 105.035 92.8063C104.519 94.5563 104.004 96.3298 103.488 98.1266C103.144 99.2204 102.785 100.299 102.41 101.361C102.316 101.752 102.199 102.134 102.058 102.509C101.574 103.884 100.59 104.486 99.1052 104.314C97.949 104.236 97.1599 103.681 96.7381 102.65C96.3006 101.494 95.9724 100.33 95.7537 99.1579C94.9412 94.8923 94.1912 90.611 93.5037 86.3141C91.7849 75.3766 90.0974 64.447 88.4412 53.5251C87.9256 49.9782 87.4256 46.4548 86.9412 42.9548C86.3943 39.2048 85.8474 35.4548 85.3006 31.7048C84.8162 28.7204 84.3162 25.7516 83.8006 22.7985C83.5662 21.3766 83.324 19.9782 83.074 18.6032C83.0115 18.3376 82.9646 18.0641 82.9334 17.7829C82.9334 17.6891 82.9099 17.572 82.8631 17.4313C82.8631 17.4313 82.8474 17.4313 82.8162 17.4313C82.7849 17.1813 82.7693 16.9391 82.7693 16.7048C82.7068 16.1579 82.6521 15.611 82.6052 15.0641C82.6521 14.3766 83.0193 13.9938 83.7068 13.9157C85.1756 13.7126 86.0662 14.3532 86.3787 15.8376C86.3787 15.8688 86.3787 15.9001 86.3787 15.9313C87.0662 18.8532 87.6677 21.7751 88.1834 24.697C89.074 30.3688 89.949 36.0251 90.8084 41.6657C90.8396 41.8688 90.8787 42.072 90.9256 42.2751C91.7381 47.7751 92.5584 53.2595 93.3865 58.7282C93.7615 61.4157 94.1599 64.0954 94.5818 66.7673C94.7224 67.736 94.8552 68.697 94.9802 69.6501C95.4334 72.4782 95.8631 75.2985 96.2693 78.111C96.9568 82.4079 97.6443 86.7204 98.3318 91.0485C98.5506 92.3923 98.7615 93.736 98.9646 95.0798C98.9959 95.1891 99.0271 95.2907 99.0584 95.3845C99.0584 95.4938 99.074 95.5954 99.1052 95.6891C99.1521 95.9704 99.2927 96.0954 99.5271 96.0641C99.6365 96.0329 99.7302 95.9938 99.8084 95.947C99.9021 95.9157 99.9646 95.8688 99.9959 95.8063C100.308 94.8688 100.597 93.9391 100.863 93.0173C105.847 75.5173 111.832 58.4157 118.816 41.7126C121.222 35.9782 123.847 30.361 126.691 24.861C129.551 19.361 132.597 13.947 135.832 8.61883C136.097 8.13446 136.402 7.66571 136.746 7.21258C137.371 6.49383 138.168 6.23602 139.136 6.43914Z" fill="black"/>
<path d="M146.426 67.4938C146.769 67.5251 146.707 68.0016 146.238 68.9235C145.785 69.8298 145.027 70.8766 143.965 72.0641C142.918 73.2516 141.738 74.2751 140.426 75.1345C139.129 75.9938 137.832 76.3845 136.535 76.3063C135.566 76.2126 134.847 75.9235 134.379 75.4391C133.926 74.9548 133.613 74.4235 133.441 73.8454C133.269 73.2516 133.16 72.736 133.113 72.2985C133.082 71.986 133.043 71.7516 132.996 71.5954C132.949 71.4391 132.855 71.4313 132.715 71.572C131.715 73.8688 129.98 75.0173 127.511 75.0173C126.136 75.0173 125.019 74.4079 124.16 73.1891C123.301 71.9704 122.754 70.447 122.519 68.6188C122.301 66.7751 122.48 64.9079 123.058 63.0173C123.199 62.3923 123.582 61.9626 124.207 61.7282C124.644 61.5563 125.097 61.572 125.566 61.7751C126.035 61.9782 126.285 62.2829 126.316 62.6891C126.316 63.111 126.285 63.5251 126.222 63.9313C126.144 64.2438 126.09 64.5407 126.058 64.822C125.996 65.947 126.011 67.1813 126.105 68.5251C126.215 69.8688 126.574 71.0173 127.183 71.9704C127.777 72.736 128.433 72.8376 129.152 72.2751C129.871 71.697 130.504 70.8063 131.051 69.6032C131.472 68.6501 131.801 67.7048 132.035 66.7673C132.285 65.8141 132.441 65.0798 132.504 64.5641C132.566 64.3454 132.597 64.2048 132.597 64.1423C132.707 63.736 132.816 63.3376 132.926 62.947C133.097 62.3688 133.269 61.8063 133.441 61.2595C133.738 60.197 134.488 59.7516 135.691 59.9235C136.426 59.986 136.824 60.3454 136.886 61.0016C136.949 61.8923 136.965 62.7829 136.933 63.6735C136.902 64.611 136.855 65.5251 136.793 66.4157C136.715 67.7126 136.66 69.0016 136.629 70.2829C136.597 72.1423 136.965 73.2282 137.73 73.5407C138.511 73.8376 139.457 73.6345 140.566 72.9313C141.691 72.2282 142.769 71.2751 143.801 70.072C143.894 69.9626 144.011 69.822 144.152 69.6501C144.355 69.3845 144.605 69.0876 144.902 68.7595C145.199 68.4313 145.48 68.1501 145.746 67.9157C146.027 67.6657 146.254 67.5251 146.426 67.4938Z" fill="black"/>
<path d="M167.66 67.9626C168.004 67.7595 168.34 67.6032 168.668 67.4938C168.996 67.3845 169.207 67.3923 169.301 67.5173C169.41 67.6423 169.277 67.9235 168.902 68.361C167.73 69.7048 166.324 70.9391 164.683 72.0641C163.058 73.1735 161.386 74.111 159.668 74.8766C158.324 75.486 156.902 75.9704 155.402 76.3298C153.918 76.6891 152.441 76.7673 150.972 76.5641C149.519 76.361 148.191 75.7126 146.988 74.6188C145.16 72.9313 144.402 70.8688 144.715 68.4313C144.98 66.4938 145.73 64.8532 146.965 63.5095C148.215 62.1501 149.785 61.2282 151.676 60.7438C153.254 60.4001 154.832 60.361 156.41 60.6266C157.129 60.736 157.785 60.9782 158.379 61.3532C158.926 61.7751 159.222 62.2673 159.269 62.8298C159.332 63.3923 159.121 63.9313 158.636 64.447C157.636 65.3376 156.48 65.8688 155.168 66.0407C153.699 66.2907 152.222 66.447 150.738 66.5095C150.019 66.5095 149.511 66.6579 149.215 66.9548C148.933 67.2516 148.769 67.7595 148.722 68.4782C148.488 70.4313 149.113 72.0251 150.597 73.2595C151.519 73.9938 152.636 74.3063 153.949 74.197C155.277 74.0876 156.683 73.736 158.168 73.1423C159.652 72.5329 161.105 71.8298 162.527 71.0329C163.949 70.2204 165.23 69.4548 166.371 68.736C166.855 68.4235 167.285 68.1657 167.66 67.9626ZM151.371 63.7907C151.371 63.822 151.347 63.8376 151.301 63.8376C151.238 63.9001 151.152 63.9782 151.043 64.072C150.949 64.1501 150.855 64.236 150.761 64.3298C150.683 64.4079 150.644 64.4626 150.644 64.4938C150.676 64.6032 150.957 64.6345 151.488 64.5876C152.019 64.5251 152.605 64.4313 153.246 64.3063C153.886 64.1657 154.418 63.986 154.84 63.7673C155.277 63.5329 155.41 63.2595 155.238 62.947C155.16 62.8532 155.058 62.7751 154.933 62.7126C154.824 62.6345 154.699 62.5798 154.558 62.5485C153.933 62.5485 153.363 62.6735 152.847 62.9235C152.332 63.1579 151.84 63.447 151.371 63.7907Z" fill="black"/>
</svg>
